# xmcd
#
# Track frame offsets:
#	150
#	15017
#	29425
#	53655
#	64914
#	90342
#	103342
#	124166
#	134756
#	148354
#	161828
#	186030
#
# Disc length: 2538 seconds
# Revision: 2
# Processed by: cddbd v1.5.2PL0 Copyright (c) Steve Scherf et al.
# Submitted via: dBpowerAMP V12.0
#
DISCID=a909e80c
DTITLE=Dżem - Akustycznie – suplement
DYEAR=1994
DGENRE=Blues
TTITLE0=Harley mój
TTITLE1=Kiepska gra
TTITLE2=Autsajder
TTITLE3=Po co?
TTITLE4=Naiwne pytania
TTITLE5=Cała w trawie
TTITLE6=Uśmiech śmierci
TTITLE7=Koszmarna Noc
TTITLE8=Człowieku co się z tobą dzieje
TTITLE9=Sen o Victorii
TTITLE10=Whisky
TTITLE11=Modlitwa, Pt. 3
EXTD=
EXTT0=
EXTT1=
EXTT2=
EXTT3=
EXTT4=
EXTT5=
EXTT6=
EXTT7=
EXTT8=
EXTT9=
EXTT10=
EXTT11=
PLAYORDER=
